<?xml version="1.0" encoding="UTF-8"?><svg id="_ëîé_1" xmlns="http://www.w3.org/2000/svg" viewBox="0 0 100 100"><defs><style>.cls-1{stroke-width:7px;}.cls-1,.cls-2{fill:none;stroke:#ffde00;stroke-linejoin:round;}.cls-2{stroke-linecap:round;stroke-width:6px;}.cls-3{fill:#e30613;}</style></defs><circle class="cls-2" cx="49.97" cy="54.16" r="30.08" transform="translate(-23.66 51.2) rotate(-45)"/><path class="cls-1" d="M19.42,84.71C2.55,67.84,2.55,40.49,19.42,23.62"/><path class="cls-1" d="M80.52,23.62c16.87,16.87,16.87,44.23,0,61.1"/><g><path class="cls-3" d="M41.04,63l-1.77-5.22h-5.13l-1.72,5.22h-3.33l5.99-17.64h3.34l6.02,17.64h-3.4Zm-2.57-7.94l-1.39-4.08c-.15-.43-.27-.84-.39-1.24-.12,.43-.24,.82-.36,1.21l-1.39,4.12h3.53Z"/><path class="cls-3" d="M33.76,57.25l-1.72,5.22h-2.22l5.64-16.59h2.58l5.66,16.59h-2.29l-1.77-5.22h-5.88Zm5.44-1.67l-1.62-4.78c-.37-1.08-.62-2.07-.86-3.03h-.05c-.25,.98-.52,1.99-.84,3l-1.62,4.8h5Z"/><path class="cls-3" d="M49.99,63.15c-1.68,0-2.85-.13-3.39-.2l-.45-.06v-17.2l.42-.09c1.04-.22,2.58-.36,4.02-.36,2.25,0,3.75,.41,4.88,1.32,1.02,.76,1.57,1.92,1.57,3.34s-.77,2.78-2.07,3.6c1.4,.7,2.68,2.09,2.68,4.25,0,1.45-.53,2.69-1.56,3.7-1.25,1.15-3.25,1.7-6.1,1.7Zm-.66-2.76c.32,.03,.74,.04,1.27,.04,1.7,0,3.73-.47,3.73-2.7,0-2.41-2.63-2.67-3.76-2.67h-1.25v5.33Zm1.42-8.01c1.86,0,3.07-.89,3.07-2.26,0-.54,0-2.18-3.12-2.18-.54,0-1,.02-1.37,.07v4.37h1.42Z"/><path class="cls-3" d="M46.67,46.1c.94-.2,2.41-.34,3.91-.34,2.14,0,3.52,.37,4.55,1.21,.86,.64,1.38,1.62,1.38,2.93,0,1.6-1.06,3-2.81,3.64v.05c1.58,.39,3.42,1.7,3.42,4.16,0,1.43-.57,2.51-1.4,3.32-1.16,1.06-3.03,1.55-5.74,1.55-1.48,0-2.61-.1-3.32-.2v-16.32Zm2.14,6.79h1.94c2.26,0,3.59-1.18,3.59-2.78,0-1.94-1.48-2.71-3.64-2.71-.98,0-1.55,.07-1.9,.15v5.34Zm0,7.95c.42,.07,1.03,.1,1.8,.1,2.22,0,4.26-.81,4.26-3.22,0-2.26-1.94-3.2-4.28-3.2h-1.77v6.33Z"/><path class="cls-3" d="M63.93,63.24c-1.65,0-3.51-.47-4.53-1.15l-.32-.22,.85-2.82,.58,.36c1.02,.63,2.35,1,3.56,1,1.82,0,2.95-.88,2.95-2.31,0-1.1-.46-1.91-2.79-2.81-3.17-1.12-4.72-2.82-4.72-5.19,0-2.96,2.42-5.03,5.89-5.03,2.06,0,3.35,.55,3.93,.88l.38,.21-.93,2.75-.55-.3c-.61-.33-1.6-.72-2.9-.72-1.92,0-2.6,1.06-2.6,1.96,0,1.2,.69,1.83,2.96,2.71,3.2,1.24,4.57,2.84,4.57,5.36,0,3.66-3.18,5.3-6.33,5.3Z"/><path class="cls-3" d="M60.24,59.86c.96,.59,2.36,1.08,3.84,1.08,2.19,0,3.47-1.16,3.47-2.83,0-1.55-.89-2.44-3.13-3.3-2.71-.96-4.38-2.36-4.38-4.7,0-2.58,2.14-4.5,5.37-4.5,1.7,0,2.93,.39,3.67,.81l-.59,1.75c-.54-.3-1.65-.79-3.15-.79-2.26,0-3.13,1.35-3.13,2.49,0,1.55,1.01,2.31,3.3,3.2,2.81,1.08,4.23,2.44,4.23,4.87,0,2.56-1.9,4.78-5.81,4.78-1.6,0-3.35-.47-4.23-1.06l.54-1.8Z"/></g></svg>