<?xml version="1.0" encoding="UTF-8"?><svg id="_ëîé_1" xmlns="http://www.w3.org/2000/svg" viewBox="0 0 100 100"><defs><style>.cls-1{fill:none;}.cls-1,.cls-2{stroke:#ffde00;stroke-linecap:round;stroke-linejoin:round;stroke-width:6px;}.cls-2{fill:#1d1d1b;}</style></defs><path class="cls-1" d="M15.16,64.2v-23.22c6.55-1.25,10.88-4.74,13.04-10.44H62.58s1.84,9.36,8.59,9.36h3.07v7.52h8.75v-7.21h4.84c3.77,0,6.82,3.06,6.82,6.82v23.79c0,3.77-3.06,6.83-6.84,6.82h-4.83v-7.3l-8.09,.02s.57,10.44-5.25,10.44h-29.35c-3.67,0-7.2-1.43-9.83-3.98l-4.97-4.82c-1.14-1.1-2.66-1.72-4.24-1.72h0c-3.37,0-6.09-2.73-6.09-6.09Z"/><line class="cls-1" x1="60.36" y1="19.19" x2="27.52" y2="19.19"/><line class="cls-1" x1="5.34" y1="37.45" x2="5.34" y2="67.23"/><line class="cls-1" x1="15.16" y1="52.34" x2="5.34" y2="52.34"/><rect class="cls-2" x="38.41" y="19.34" width="10.87" height="9.82"/></svg>