<?xml version="1.0" encoding="UTF-8"?><svg id="_ëîé_1" xmlns="http://www.w3.org/2000/svg" viewBox="0 0 100 100"><defs><style>.cls-1{fill:#e30613;}.cls-2{stroke-linecap:round;}.cls-2,.cls-3{fill:none;stroke:#ffed00;stroke-linejoin:round;stroke-width:7px;}.cls-4{fill:#1d1d1b;}</style></defs><circle class="cls-2" cx="49.97" cy="50" r="29.96" transform="translate(-7.39 91.32) rotate(-80.78)"/><path class="cls-3" d="M19.54,80.43C2.73,63.62,2.73,36.38,19.54,19.57"/><path class="cls-3" d="M80.4,19.57c16.81,16.81,16.81,44.06,0,60.86"/><g><polygon class="cls-4" points="31.94 60.17 31.94 42.6 41.91 42.6 41.91 45.44 35.12 45.44 35.12 49.61 41.54 49.61 41.54 52.43 35.12 52.43 35.12 57.34 42.28 57.34 42.28 60.17 31.94 60.17"/><path class="cls-1" d="M41.02,51.9h-6.42v5.96h7.16v1.79h-9.29v-16.53h8.92v1.79h-6.79v5.22h6.42v1.77Z"/><path class="cls-4" d="M48.96,60.42c-1.65,0-3.5-.47-4.51-1.14l-.32-.22,.85-2.81,.58,.36c1.02,.63,2.35,1,3.55,1,1.81,0,2.93-.88,2.93-2.3,0-1.09-.45-1.9-2.78-2.8-3.16-1.12-4.7-2.81-4.7-5.17,0-2.95,2.41-5.01,5.87-5.01,2.06,0,3.33,.55,3.91,.88l.38,.21-.93,2.74-.55-.3c-.6-.33-1.59-.72-2.89-.72-1.91,0-2.59,1.05-2.59,1.95,0,1.19,.69,1.82,2.95,2.7,3.19,1.23,4.55,2.83,4.55,5.34,0,3.65-3.17,5.28-6.31,5.28Z"/><path class="cls-1" d="M45.28,57.05c.96,.59,2.35,1.08,3.83,1.08,2.18,0,3.46-1.15,3.46-2.82,0-1.54-.88-2.43-3.11-3.29-2.7-.96-4.36-2.35-4.36-4.68,0-2.57,2.13-4.49,5.35-4.49,1.69,0,2.92,.39,3.65,.81l-.59,1.74c-.54-.29-1.64-.78-3.14-.78-2.26,0-3.11,1.35-3.11,2.48,0,1.54,1.01,2.3,3.29,3.19,2.8,1.08,4.22,2.43,4.22,4.85,0,2.55-1.89,4.76-5.79,4.76-1.59,0-3.33-.47-4.22-1.05l.54-1.79Z"/><path class="cls-4" d="M57.66,60.17v-17.3l.44-.07c1.32-.22,2.68-.33,4.18-.33,2.2,0,3.87,.51,4.98,1.51,1.04,.9,1.62,2.27,1.62,3.85s-.48,2.92-1.42,3.9c-1.19,1.27-3.12,1.97-5.43,1.97-.39,0-.8,0-1.19-.05v6.52h-3.18Zm3.18-9.31c.34,.05,.75,.08,1.24,.08,1.35,0,3.62-.39,3.62-3.01,0-2.24-1.84-2.71-3.37-2.71-.64,0-1.14,.04-1.49,.08v5.56Z"/><path class="cls-1" d="M58.19,43.32c1.03-.17,2.38-.32,4.09-.32,2.11,0,3.65,.49,4.63,1.37,.91,.78,1.45,1.99,1.45,3.46s-.44,2.67-1.28,3.53c-1.13,1.2-2.97,1.81-5.05,1.81-.64,0-1.23-.02-1.72-.15v6.62h-2.13v-16.33Zm2.13,7.97c.47,.12,1.05,.17,1.77,.17,2.57,0,4.14-1.25,4.14-3.53s-1.54-3.24-3.9-3.24c-.93,0-1.64,.07-2.01,.17v6.42Z"/></g></svg>