<?xml version="1.0" encoding="UTF-8"?><svg id="_ëîé_1" xmlns="http://www.w3.org/2000/svg" viewBox="0 0 100 100"><defs><style>.cls-1{fill:#1d71b8;}</style></defs><path class="cls-1" d="M51.83,79.43c-2.89,0-5.51-1.69-6.69-4.31-5.51-12.27-5.51-20.88-5.51-27.8v-.36c0-6.92,0-15.54,5.51-27.81,1.18-2.62,3.8-4.31,6.69-4.31,.33,0,.67,.02,1,.07,9.97,1.39,42.49,7.81,42.49,32.23s-32.52,30.84-42.49,32.23c-.33,.05-.66,.07-1,.07Zm.47-56.4c-4.55,10.38-4.55,17.57-4.55,23.92v.35c0,6.35,0,13.54,4.55,23.92,4.01-.59,13.11-2.27,20.99-6.14,9.23-4.53,13.91-10.58,13.91-17.96s-4.68-13.43-13.91-17.96c-7.88-3.87-16.98-5.55-20.99-6.14Z"/><path class="cls-1" d="M51.83,78.78c-2.59,0-5.02-1.53-6.1-3.93-5.45-12.14-5.45-20.68-5.45-27.54v-.35c0-6.86,0-15.4,5.45-27.54,1.2-2.68,4.08-4.27,7.01-3.87h0c9.84,1.37,41.93,7.69,41.93,31.59s-32.1,30.22-41.93,31.59c-.3,.04-.61,.06-.91,.06Zm.08-56.46c-4.8,10.75-4.8,18.13-4.8,24.64v.35c0,6.51,0,13.89,4.8,24.64,3.84-.54,13.39-2.21,21.67-6.27,9.47-4.65,14.27-10.89,14.27-18.54s-4.8-13.89-14.27-18.54c-8.28-4.06-17.83-5.73-21.67-6.27Zm-.11-.01h0Z"/><path class="cls-1" d="M5.32,45.58l29.33-9.21-.1,.98c-.28,2.82-.33,5.34-.34,7.22v.47S5.32,54.1,5.32,54.1v-8.52Z"/><path class="cls-1" d="M33.91,37.28L5.97,46.05v7.16l27.6-8.66c.02-2.19,.08-4.6,.34-7.27Z"/><path class="cls-1" d="M5.32,30.57l32.82-10.31-.57,1.41c-.86,2.54-1.56,5.09-2.07,7.59l-.08,.37L5.32,39.1v-8.52Z"/><path class="cls-1" d="M36.96,21.47l-.05-.15L5.97,31.05v7.16l28.9-9.07c.49-2.39,1.17-4.94,2.1-7.67Z"/><path class="cls-1" d="M5.32,60.58l28.9-9.07,.02,.87c.05,2.55,.19,4.76,.44,6.96l.06,.53-29.42,9.24v-8.52Z"/><path class="cls-1" d="M33.58,52.39L5.97,61.05v7.16l28.06-8.8c-.3-2.56-.41-4.89-.45-7.02Z"/><path class="cls-1" d="M5.32,75.58l30.14-9.47,.15,.7c.46,2.16,1.06,4.35,1.78,6.52l.21,.62L5.32,84.1v-8.52Z"/><path class="cls-1" d="M34.98,66.95l-29.01,9.11v7.16l30.81-9.68c-.77-2.33-1.35-4.52-1.8-6.59Z"/></svg>