<?xml version="1.0" encoding="UTF-8"?><svg id="_ëîé_1" xmlns="http://www.w3.org/2000/svg" viewBox="0 0 100 100"><defs><style>.cls-1,.cls-2{fill:#fff;}.cls-3{fill:none;stroke:#ffed00;stroke-linecap:round;stroke-miterlimit:10;stroke-width:8.58px;}.cls-2{font-family:MyriadPro-Regular, 'Myriad Pro';font-size:19px;}.cls-4{fill:#ffed00;}</style></defs><g><path class="cls-4" d="M32.33,14.85h28.26c3.49,0,6.33,2.84,6.33,6.33v61.55H26V21.18c0-3.49,2.84-6.33,6.33-6.33Z"/><rect class="cls-1" x="32.32" y="20.86" width="28.27" height="17.88"/><path class="cls-4" d="M28.27,75.76h36.36c2.73,0,4.95,2.22,4.95,4.95v2.02H23.32v-2.02c0-2.73,2.22-4.95,4.95-4.95Z"/><path class="cls-3" d="M64.94,47.21h0c5.16,0,9.34,4.18,9.34,9.34v11.6c0,3.4,2.76,6.16,6.16,6.16h0c3.4,0,6.16-2.76,6.16-6.16v-24.71c0-3.73-1.42-7.32-3.98-10.04l-8.32-8.86"/><path class="cls-3" d="M81.8,32.52v7.72c0,1.06,.52,2.06,1.39,2.67l3.42,2.38"/></g><path class="cls-1" d="M25.52,61.13c-11.37,0-20.62-9.25-20.62-20.62S15.5,15.11,21.83,6.88l.97-1.26,2.73-3.56,2.73,3.56,.97,1.26c6.33,8.23,16.92,22.01,16.92,33.62s-9.25,20.62-20.62,20.62Z"/><path class="cls-4" d="M25.52,8.6c-5.67,7.41-16.54,20.96-16.54,31.57,0,9.06,7.48,16.54,16.54,16.54s16.54-7.48,16.54-16.54c0-10.62-10.87-24.17-16.54-31.57Z"/><text class="cls-2" transform="translate(15.53 44.98)"><tspan x="0" y="0">E5</tspan></text></svg>