<?xml version="1.0" encoding="UTF-8"?><svg id="_ëîé_1" xmlns="http://www.w3.org/2000/svg" viewBox="0 0 100 100"><defs><style>.cls-1{fill:#ffed00;}.cls-1,.cls-2{stroke:#ffed00;stroke-miterlimit:10;stroke-width:4px;}.cls-2{fill:none;}</style></defs><path class="cls-2" d="M18.17,78.04c2.5-1.67,5.74-1.76,8.33-.23l1.34,.79c2.54,1.5,5.7,1.45,8.18-.13l.83-.53c2.54-1.61,5.78-1.62,8.33-.04l.98,.61c2.5,1.55,5.66,1.57,8.18,.06l1.12-.67c2.62-1.57,5.91-1.49,8.44,.22h0c2.62,1.77,6.04,1.8,8.69,.07l.22-.14c2.55-1.66,5.83-1.71,8.42-.11"/><path class="cls-2" d="M65.59,63.57h0c3.09,2.09,7.13,2.12,10.26,.08l.26-.17c3.01-1.96,6.88-2.01,9.94-.13"/><path class="cls-2" d="M12.78,63.48c2.96-1.97,6.78-2.07,9.84-.27l1.58,.93c2.99,1.77,6.72,1.71,9.66-.15l.98-.62"/><circle class="cls-1" cx="50.39" cy="62.72" r="7.81"/><line class="cls-2" x1="50.74" y1="17.8" x2="50.74" y2="66.06"/><path class="cls-2" d="M64.86,21.51h-14.12"/><path class="cls-2" d="M64.86,33.69h-14.12"/><path class="cls-2" d="M64.86,46.33h-14.12"/></svg>