<?xml version="1.0" encoding="UTF-8"?><svg id="_ëîé_1" xmlns="http://www.w3.org/2000/svg" viewBox="0 0 100 100"><defs><style>.cls-1{fill:#be1622;}</style></defs><rect class="cls-1" x="25.14" y="75.67" width="53.78" height="6.53"/><rect class="cls-1" x="72.56" y="66.21" width="12.73" height="25.46" rx="4.7" ry="4.7"/><path class="cls-1" d="M23.48,66.21h3.33c2.6,0,4.7,2.11,4.7,4.7v16.05c0,2.6-2.11,4.7-4.7,4.7h-3.33c-2.6,0-4.7-2.11-4.7-4.7v-16.05c0-2.6,2.11-4.7,4.7-4.7Z"/><rect class="cls-1" x="25.14" y="19.9" width="53.78" height="6.53"/><rect class="cls-1" x="71.91" y="10.43" width="12.73" height="25.46" rx="4.7" ry="4.7" transform="translate(9.21 -20.36) rotate(15.73)"/><rect class="cls-1" x="19.42" y="10.43" width="12.73" height="25.46" rx="4.7" ry="4.7" transform="translate(7.25 -6.13) rotate(15.73)"/><rect class="cls-1" x="49.34" y="23.92" width="5.39" height="53.48"/><rect class="cls-1" x="46.57" y="40.98" width="10.94" height="19.36" rx="4.03" ry="4.03"/></svg>