<?xml version="1.0" encoding="UTF-8"?><svg id="_ëîé_1" xmlns="http://www.w3.org/2000/svg" viewBox="0 0 100 100"><defs><style>.cls-1{fill:#e30613;}.cls-2{fill:none;stroke:#be1622;stroke-linecap:round;stroke-linejoin:round;stroke-width:10px;}</style></defs><polygon class="cls-2" points="87.65 81.74 13.56 81.74 50.6 13.76 87.65 81.74"/><g><path class="cls-1" d="M54.11,58.3l.42-17.14c.04-1.62-1.54-2.96-3.51-2.96h-.83c-1.96,0-3.55,1.33-3.51,2.96l.42,17.14c.04,1.58,1.6,2.84,3.51,2.84h0c1.91,0,3.47-1.26,3.51-2.84Z"/><path class="cls-1" d="M50.6,65.31c-2.46,0-4.47,2.01-4.47,4.47s2.01,4.47,4.47,4.47,4.47-2.01,4.47-4.47-2.01-4.47-4.47-4.47Z"/></g></svg>